#Comment line ignore any data following # character 
#Hierarchical Translation and Rotation (.htr) file 
[Header]	
#Header keywords are followed by a single value 
FileType HTR		#Single word string
DataType HTRS		#Translation followed by rotation and scale data
FileVersion 1		#integer
NumSegments 64		#integer
NumFrames 3		#integer
DataFrameRate 30		#integer, data frame rate in this file
EulerRotationOrder ZYX
CalibrationUnits mm
RotationUnits Degrees
GlobalAxisofGravity Y
BoneLengthAxis Y
ScaleFactor 1.00
[SegmentNames&Hierarchy]
#CHILD	PARENT
Pinger_Root GLOBAL
Pelvis Pinger_Root
L_Hip Pelvis
R_Hip Pelvis
Rear_Leg01 Pelvis
Spine1 Pelvis
L_Leg01 L_Hip
L_Leg02 L_Leg01
L_Leg03 L_Leg02
L_Foot L_Leg03
L_Toe1_01 L_Foot
L_Toe2_01 L_Foot
L_Toe3_01 L_Foot
planeAlignerLeft L_Foot
L_Toe1_02 L_Toe1_01
L_Toe1_03 L_Toe1_02
L_Toe2_02 L_Toe2_01
L_Toe2_03 L_Toe2_02
L_Toe3_02 L_Toe3_01
L_Toe3_03 L_Toe3_02
planeLockWeightLeft planeAlignerLeft
R_Leg01 R_Hip
R_Leg02 R_Leg01
R_Leg03 R_Leg02
R_Foot R_Leg03
planeAlignerRight R_Foot
R_Toe1_01 R_Foot
R_Toe2_01 R_Foot
R_Toe3_01 R_Foot
planeLockWeightRight planeAlignerRight
R_Toe1_02 R_Toe1_01
R_Toe1_03 R_Toe1_02
R_Toe2_02 R_Toe2_01
R_Toe2_03 R_Toe2_02
R_Toe3_02 R_Toe3_01
R_Toe3_03 R_Toe3_02
Rear_Leg02 Rear_Leg01
Rear_Leg03 Rear_Leg02
Rear_Leg04 Rear_Leg03
Rear_Foot Rear_Leg04
planeAlignerCenter Rear_Foot
Rear_Toe1_01 Rear_Foot
Rear_Toe2_01 Rear_Foot
Rear_Toe3_01 Rear_Foot
planeLockWeightCenter planeAlignerCenter
Rear_Toe1_02 Rear_Toe1_01
Rear_Toe1_03 Rear_Toe1_02
Rear_Toe2_02 Rear_Toe2_01
Rear_Toe2_03 Rear_Toe2_02
Rear_Toe3_02 Rear_Toe3_01
Rear_Toe3_03 Rear_Toe3_02
Back_Bone Spine1
Head Spine1
Motor_Bone Back_Bone
Ping_Mechanism Back_Bone
BN_LookIK Head
bottomMouth Head
L_Mouth01 Head
L_mouthFront Head
mouthGun Head
R_Mouth01 Head
R_mouthFront Head
TopMouth Head
weapon_bone Head
[BasePosition]
#SegmentName Tx, Ty, Tz, Rx, Ry, Rz, BoneLength
Pinger_Root 0.000000 0.000000 0.000000 -90.000000 0.000000 0.000000 10.000000 
Pelvis 0.000000 0.000000 0.000000 0.000000 0.000000 0.000000 10.000000 
L_Hip 0.000000 0.000000 0.000000 0.000000 0.000000 0.000000 10.000000 
R_Hip 0.000000 0.000000 0.000000 0.000000 0.000000 0.000000 10.000000 
Rear_Leg01 0.000000 0.000000 0.000000 0.000000 0.000000 0.000000 10.000000 
Spine1 0.000000 0.000000 0.000000 0.000000 0.000000 0.000000 10.000000 
L_Leg01 0.000000 0.000000 0.000000 0.000000 0.000000 0.000000 10.000000 
L_Leg02 0.000000 0.000000 0.000000 0.000000 0.000000 0.000000 10.000000 
L_Leg03 0.000000 0.000000 0.000000 0.000000 0.000000 0.000000 10.000000 
L_Foot 0.000000 0.000000 0.000000 0.000000 0.000000 0.000000 10.000000 
L_Toe1_01 0.000000 0.000000 0.000000 0.000000 0.000000 0.000000 10.000000 
L_Toe2_01 0.000000 0.000000 0.000000 0.000000 0.000000 0.000000 10.000000 
L_Toe3_01 0.000000 0.000000 0.000000 0.000000 0.000000 0.000000 10.000000 
planeAlignerLeft 0.000000 0.000000 0.000000 0.000000 0.000000 0.000000 10.000000 
L_Toe1_02 0.000000 0.000000 0.000000 0.000000 0.000000 0.000000 10.000000 
L_Toe1_03 0.000000 0.000000 0.000000 0.000000 0.000000 0.000000 10.000000 
L_Toe2_02 0.000000 0.000000 0.000000 0.000000 0.000000 0.000000 10.000000 
L_Toe2_03 0.000000 0.000000 0.000000 0.000000 0.000000 0.000000 10.000000 
L_Toe3_02 0.000000 0.000000 0.000000 0.000000 0.000000 0.000000 10.000000 
L_Toe3_03 0.000000 0.000000 0.000000 0.000000 0.000000 0.000000 10.000000 
planeLockWeightLeft 0.000000 0.000000 0.000000 0.000000 0.000000 0.000000 10.000000 
R_Leg01 0.000000 0.000000 0.000000 0.000000 0.000000 0.000000 10.000000 
R_Leg02 0.000000 0.000000 0.000000 0.000000 0.000000 0.000000 10.000000 
R_Leg03 0.000000 0.000000 0.000000 0.000000 0.000000 0.000000 10.000000 
R_Foot 0.000000 0.000000 0.000000 0.000000 0.000000 0.000000 10.000000 
planeAlignerRight 0.000000 0.000000 0.000000 0.000000 0.000000 0.000000 10.000000 
R_Toe1_01 0.000000 0.000000 0.000000 0.000000 0.000000 0.000000 10.000000 
R_Toe2_01 0.000000 0.000000 0.000000 0.000000 0.000000 0.000000 10.000000 
R_Toe3_01 0.000000 0.000000 0.000000 0.000000 0.000000 0.000000 10.000000 
planeLockWeightRight 0.000000 0.000000 0.000000 0.000000 0.000000 0.000000 10.000000 
R_Toe1_02 0.000000 0.000000 0.000000 0.000000 0.000000 0.000000 10.000000 
R_Toe1_03 0.000000 0.000000 0.000000 0.000000 0.000000 0.000000 10.000000 
R_Toe2_02 0.000000 0.000000 0.000000 0.000000 0.000000 0.000000 10.000000 
R_Toe2_03 0.000000 0.000000 0.000000 0.000000 0.000000 0.000000 10.000000 
R_Toe3_02 0.000000 0.000000 0.000000 0.000000 0.000000 0.000000 10.000000 
R_Toe3_03 0.000000 0.000000 0.000000 0.000000 0.000000 0.000000 10.000000 
Rear_Leg02 0.000000 0.000000 0.000000 0.000000 0.000000 0.000000 10.000000 
Rear_Leg03 0.000000 0.000000 0.000000 0.000000 0.000000 0.000000 10.000000 
Rear_Leg04 0.000000 0.000000 0.000000 0.000000 0.000000 0.000000 10.000000 
Rear_Foot 0.000000 0.000000 0.000000 0.000000 0.000000 0.000000 10.000000 
planeAlignerCenter 0.000000 0.000000 0.000000 0.000000 0.000000 0.000000 10.000000 
Rear_Toe1_01 0.000000 0.000000 0.000000 0.000000 0.000000 0.000000 10.000000 
Rear_Toe2_01 0.000000 0.000000 0.000000 0.000000 0.000000 0.000000 10.000000 
Rear_Toe3_01 0.000000 0.000000 0.000000 0.000000 0.000000 0.000000 10.000000 
planeLockWeightCenter 0.000000 0.000000 0.000000 0.000000 0.000000 0.000000 10.000000 
Rear_Toe1_02 0.000000 0.000000 0.000000 0.000000 0.000000 0.000000 10.000000 
Rear_Toe1_03 0.000000 0.000000 0.000000 0.000000 0.000000 0.000000 10.000000 
Rear_Toe2_02 0.000000 0.000000 0.000000 0.000000 0.000000 0.000000 10.000000 
Rear_Toe2_03 0.000000 0.000000 0.000000 0.000000 0.000000 0.000000 10.000000 
Rear_Toe3_02 0.000000 0.000000 0.000000 0.000000 0.000000 0.000000 10.000000 
Rear_Toe3_03 0.000000 0.000000 0.000000 0.000000 0.000000 0.000000 10.000000 
Back_Bone 0.000000 0.000000 0.000000 0.000000 0.000000 0.000000 10.000000 
Head 0.000000 0.000000 0.000000 0.000000 0.000000 0.000000 10.000000 
Motor_Bone 0.000000 0.000000 0.000000 0.000000 0.000000 0.000000 10.000000 
Ping_Mechanism 0.000000 0.000000 0.000000 0.000000 0.000000 0.000000 10.000000 
BN_LookIK 0.000000 0.000000 0.000000 0.000000 0.000000 0.000000 10.000000 
bottomMouth 0.000000 0.000000 0.000000 0.000000 0.000000 0.000000 10.000000 
L_Mouth01 0.000000 0.000000 0.000000 0.000000 0.000000 0.000000 10.000000 
L_mouthFront 0.000000 0.000000 0.000000 0.000000 0.000000 0.000000 10.000000 
mouthGun 0.000000 0.000000 0.000000 0.000000 0.000000 0.000000 10.000000 
R_Mouth01 0.000000 0.000000 0.000000 0.000000 0.000000 0.000000 10.000000 
R_mouthFront 0.000000 0.000000 0.000000 0.000000 0.000000 0.000000 10.000000 
TopMouth 0.000000 0.000000 0.000000 0.000000 0.000000 0.000000 10.000000 
weapon_bone 0.000000 0.000000 0.000000 0.000000 0.000000 0.000000 10.000000 
#Beginning of Data. Separated by tabs
#Fr	Tx	Ty	Tz	Rx	Ry	Rz	SF
[Pinger_Root]
35 0.000000 0.000000 0.000000 -0.000075 -0.000000 -0.000020 0.000000
36 0.000000 0.000000 0.000000 -0.000075 -0.000000 -0.000020 0.000000
37 0.000000 0.000000 0.000000 -0.000075 -0.000000 -0.000020 0.000000
[Pelvis]
35 -0.000009 -134.062958 2540.929932 152.221252 -87.696587 -159.553146 2544.464355
36 -0.000008 -135.981537 2540.561279 152.353760 -87.698540 -159.685562 2544.197754
37 -0.000008 -138.165359 2542.104492 152.486404 -87.700493 -159.818237 2545.856445
[L_Hip]
35 5.766392 125.831482 872.656799 -101.949921 -81.158203 9.889606 881.701050
36 5.766392 125.831482 872.656799 -101.949867 -81.158203 9.889584 881.701050
37 5.766392 125.831482 872.656799 -101.949867 -81.158203 9.889584 881.701050
[R_Hip]
35 5.765438 125.836372 -872.654907 -176.915329 69.250870 -95.642792 881.699829
36 5.765438 125.836372 -872.654907 -176.915329 69.250870 -95.642792 881.699829
37 5.765438 125.836372 -872.654907 -176.915329 69.250870 -95.642792 881.699829
[Rear_Leg01]
35 -192.298416 -925.602966 -0.001907 -172.642151 0.361545 -103.394119 945.367432
36 -192.298416 -925.602966 -0.001907 -172.642365 0.360304 -103.391693 945.367432
37 -192.298416 -925.602966 -0.001907 -172.642578 0.359063 -103.389267 945.367432
[Spine1]
35 290.604584 5.007505 0.000477 7.588866 0.042518 29.110300 290.647736
36 290.604584 5.007505 0.000477 7.588672 0.037800 29.146610 290.647736
37 290.604584 5.007505 0.000477 7.588474 0.033081 29.182930 290.647736
[L_Leg01]
35 761.932007 -0.002384 -0.069261 85.018684 -65.947639 -53.695107 761.932068
36 761.932007 -0.002384 -0.069261 85.298698 -65.783691 -53.991295 761.932068
37 761.932007 -0.002384 -0.069261 84.944725 -65.876617 -53.646606 761.932068
[L_Leg02]
35 1441.140503 -0.000954 -0.000715 9.231375 1.316537 -132.003632 1441.140503
36 1441.140503 -0.000954 -0.000715 9.080671 1.304572 -131.745605 1441.140503
37 1441.140503 -0.000954 -0.000715 9.247687 1.298800 -131.721909 1441.140503
[L_Leg03]
35 1686.963989 -0.000715 -0.000954 -0.077916 0.044389 131.394241 1686.963989
36 1686.963989 -0.000715 -0.000954 -0.077863 0.044483 131.532608 1686.963989
37 1686.963989 -0.000715 -0.000954 -0.076938 0.042065 131.288330 1686.963989
[L_Foot]
35 3041.570068 -30.715107 11.297464 -34.513206 31.850897 17.005644 3041.746094
36 3041.570068 -30.715107 11.297464 -34.642517 31.876463 16.807293 3041.746094
37 3041.570068 -30.715107 11.297464 -34.490234 31.845228 16.896879 3041.746094
[L_Toe1_01]
35 -188.216690 -224.732346 -21.137953 73.293808 -5.143990 -172.263504 293.899567
36 -188.216690 -224.732346 -21.137953 73.293961 -5.145315 -172.266296 293.899567
37 -188.216690 -224.732346 -21.137953 73.294090 -5.146638 -172.269073 293.899567
[L_Toe2_01]
35 200.746536 -219.926590 148.838394 -73.054947 -16.203897 -54.260792 332.896027
36 200.746536 -219.926590 148.838394 -73.054985 -16.201714 -54.257214 332.896027
37 200.746536 -219.926590 148.838394 -73.055031 -16.199532 -54.253639 332.896027
[L_Toe3_01]
35 188.832520 -219.859131 -191.078659 -125.415977 46.027473 -59.876976 347.140900
36 188.832520 -219.859131 -191.078659 -125.412247 46.025589 -59.870277 347.140900
37 188.832520 -219.859131 -191.078659 -125.408493 46.023712 -59.863590 347.140900
[planeAlignerLeft]
35 -38.563255 -486.656525 -95.630806 -49.418827 -81.996407 -51.581078 497.460480
36 -38.520344 -486.641998 -95.622551 -49.416245 -81.995552 -51.583748 497.441406
37 -38.477432 -486.627472 -95.614288 -49.413700 -81.994698 -51.586334 497.422241
[L_Toe1_02]
35 413.761139 0.000477 0.000000 0.001396 -24.365763 0.001396 413.761139
36 413.761139 0.000477 0.000000 0.001396 -24.368561 0.001396 413.761139
37 413.761139 0.000477 0.000000 0.001396 -24.371351 0.001396 413.761139
[L_Toe1_03]
35 464.317322 0.000358 -0.000089 0.002638 37.177631 0.002638 464.317322
36 464.317322 0.000358 -0.000089 0.002639 37.181858 0.002639 464.317322
37 464.317322 0.000358 -0.000089 0.002639 37.186085 0.002639 464.317322
[L_Toe2_02]
35 342.235809 -0.000477 0.000238 0.001181 -76.988365 0.001181 342.235809
36 342.235809 -0.000477 0.000238 0.001181 -76.985893 0.001181 342.235809
37 342.235809 -0.000477 0.000238 0.001181 -76.983429 0.001181 342.235809
[L_Toe2_03]
35 420.210846 -0.000715 0.000000 -179.995102 80.097618 -179.991592 420.210846
36 420.210846 -0.000715 0.000000 -179.995087 80.103203 -179.991577 420.210846
37 420.210846 -0.000715 0.000000 -179.995087 80.108765 -179.991577 420.210846
[L_Toe3_02]
35 329.270111 0.000954 0.000000 0.001176 -82.898972 0.001176 329.270111
36 329.270111 0.000954 0.000000 0.001176 -82.896294 0.001176 329.270111
37 329.270111 0.000954 0.000000 0.001176 -82.893562 0.001176 329.270111
[L_Toe3_03]
35 439.137451 -0.001907 0.000954 179.990555 66.969620 179.997681 439.137451
36 439.137451 -0.001907 0.000954 179.990555 66.961853 179.997696 439.137451
37 439.137451 -0.001907 0.000954 179.990555 66.954102 179.997696 439.137451
[planeLockWeightLeft]
35 999.998779 0.098037 0.076008 -0.011826 -0.004376 0.005620 999.998840
36 999.998779 0.098039 0.076007 -0.011826 -0.004376 0.005620 999.998840
37 999.998779 0.098042 0.076007 -0.011826 -0.004376 0.005620 999.998840
[R_Leg01]
35 761.455627 -0.001907 -0.000358 58.847839 -56.109619 82.667862 761.455688
36 761.455627 -0.001907 -0.000358 58.835293 -55.937756 82.596153 761.455688
37 761.455627 -0.001907 -0.000358 58.978321 -56.083160 82.569382 761.455688
[R_Leg02]
35 1441.140625 0.000000 -0.000238 -13.177002 -4.770195 -121.081795 1441.140625
36 1441.140625 0.000000 -0.000238 -13.101336 -4.738630 -120.711494 1441.140625
37 1441.140625 0.000000 -0.000238 -13.252240 -4.747851 -120.739838 1441.140625
[R_Leg03]
35 1686.963989 0.000954 0.001431 0.115479 -0.071765 141.908768 1686.963989
36 1686.963989 0.000954 0.001431 0.115455 -0.071804 141.947998 1686.963989
37 1686.963989 0.000954 0.001431 0.115574 -0.071612 141.756943 1686.963989
[R_Foot]
35 3041.560059 -30.531288 -11.204481 30.649368 -27.751738 15.859200 3041.734131
36 3041.560059 -30.531288 -11.204481 30.772919 -27.823870 15.632515 3041.734131
37 3041.560059 -30.531288 -11.204481 30.593060 -27.766708 15.738273 3041.734131
[planeAlignerRight]
35 -223.581772 -564.090149 -76.412949 -172.216263 -81.431870 69.619392 611.576172
36 -223.536484 -564.068298 -76.407471 -172.216263 -81.431870 69.619392 611.538818
37 -223.491165 -564.046509 -76.401993 -172.216263 -81.431870 69.619392 611.501465
[R_Toe1_01]
35 -188.383347 -224.864899 21.052242 102.432816 -2.591017 -171.752380 294.101532
36 -188.383347 -224.864899 21.052242 102.433098 -2.590153 -171.758041 294.101532
37 -188.383347 -224.864899 21.052242 102.433411 -2.589288 -171.763702 294.101532
[R_Toe2_01]
35 200.637817 -220.002121 -148.787384 -125.820953 12.734352 -63.898415 332.857574
36 200.637817 -220.002121 -148.787384 -125.820457 12.732392 -63.893723 332.857574
37 200.637817 -220.002121 -148.787384 -125.819923 12.730427 -63.888988 332.857574
[R_Toe3_01]
35 188.606735 -220.092957 191.126343 -66.896271 -38.581421 -60.923500 347.192566
36 188.606735 -220.092957 191.126343 -66.898750 -38.580284 -60.916428 347.192566
37 188.606735 -220.092957 191.126343 -66.901245 -38.579155 -60.909374 347.192566
[planeLockWeightRight]
35 999.999329 0.000000 0.076010 -0.011823 -0.004379 -0.000027 999.999329
36 999.999329 0.000000 0.076010 -0.011823 -0.004379 -0.000027 999.999329
37 999.999329 0.000000 0.076010 -0.011823 -0.004379 -0.000027 999.999329
[R_Toe1_02]
35 413.762085 0.000477 -0.000119 0.001386 -25.693794 0.001386 413.762085
36 413.762085 0.000477 -0.000119 0.001386 -25.697794 0.001386 413.762085
37 413.762085 0.000477 -0.000119 0.001386 -25.701803 0.001386 413.762085
[R_Toe1_03]
35 464.317810 0.000000 0.001088 0.003136 46.049839 0.003136 464.317810
36 464.317810 0.000000 0.001088 0.003137 46.053993 0.003137 464.317810
37 464.317810 0.000000 0.001088 0.003137 46.058144 0.003137 464.317810
[R_Toe2_02]
35 342.234741 -0.000954 0.000238 -0.002342 -75.431664 -0.002342 342.234741
36 342.234741 -0.000954 0.000238 -0.002342 -75.429863 -0.002342 342.234741
37 342.234741 -0.000954 0.000238 -0.002342 -75.428017 -0.002342 342.234741
[R_Toe2_03]
35 420.210846 0.000715 -0.000268 -179.983902 85.411446 -179.987396 420.210846
36 420.210846 0.000715 -0.000268 -179.983887 85.413666 -179.987381 420.210846
37 420.210846 0.000715 -0.000268 -179.983887 85.415932 -179.987381 420.210846
[R_Toe3_02]
35 329.270355 -0.000477 -0.000954 0.001176 -82.657143 0.001176 329.270355
36 329.270355 -0.000477 -0.000954 0.001176 -82.656525 0.001176 329.270355
37 329.270355 -0.000477 -0.000954 0.001176 -82.655838 0.001176 329.270355
[R_Toe3_03]
35 439.137939 0.000238 0.001431 -179.998810 67.774475 -179.995239 439.137939
36 439.137939 0.000238 0.001431 -179.998810 67.766495 -179.995239 439.137939
37 439.137939 0.000238 0.001431 -179.998810 67.773125 -179.995239 439.137939
[Rear_Leg02]
35 1162.777710 -0.029802 0.005960 6.503215 -1.790722 -108.787460 1162.777710
36 1162.777710 -0.029802 0.005960 6.505993 -1.783040 -108.855133 1162.777710
37 1162.777710 -0.029802 0.005960 6.508764 -1.775355 -108.922798 1162.777710
[Rear_Leg03]
35 607.192505 -0.013351 -0.073195 0.010382 -0.005327 70.679741 607.192505
36 607.192505 -0.013351 -0.073195 0.010381 -0.005329 70.701294 607.192505
37 607.192505 -0.013351 -0.073195 0.010380 -0.005331 70.722855 607.192505
[Rear_Leg04]
35 995.874512 -0.020504 -0.011921 -0.040959 -0.017070 72.114105 995.874573
36 995.874512 -0.020504 -0.011921 -0.040968 -0.017049 72.172668 995.874573
37 995.874512 -0.020504 -0.011921 -0.040976 -0.017028 72.231201 995.874573
[Rear_Foot]
35 3096.176270 -0.067472 -0.041425 -21.078146 81.706940 -171.544220 3096.176270
36 3096.176270 -0.067472 -0.041425 -21.076254 81.706467 -171.554184 3096.176270
37 3096.176270 -0.067472 -0.041425 -21.074354 81.705917 -171.564148 3096.176270
[planeAlignerCenter]
35 -8.680687 -179.508163 -664.261536 12.240772 -0.001473 179.998184 688.143799
36 -8.680725 -179.693451 -664.241516 12.240772 -0.001473 179.998184 688.172852
37 -8.680762 -179.878723 -664.221497 12.240770 -0.001473 179.998184 688.201965
[Rear_Toe1_01]
35 0.653352 83.966492 -371.173737 0.694705 30.815067 91.062447 380.553192
36 0.653352 83.966492 -371.173737 0.695642 30.816031 91.063286 380.553192
37 0.653352 83.966492 -371.173737 0.696578 30.817001 91.064110 380.553192
[Rear_Toe2_01]
35 178.200760 -294.826019 -362.060547 -8.041721 29.273582 -68.117012 499.765686
36 178.200760 -294.826019 -362.060547 -8.042266 29.270601 -68.123978 499.765686
37 178.200760 -294.826019 -362.060547 -8.042809 29.267614 -68.130943 499.765686
[Rear_Toe3_01]
35 -153.359680 -308.780914 -362.060852 3.656294 28.045862 -111.938034 499.952881
36 -153.359680 -308.780914 -362.060852 3.656525 28.041832 -111.935127 499.952881
37 -153.359680 -308.780914 -362.060852 3.656756 28.037807 -111.932243 499.952881
[planeLockWeightCenter]
35 1000.000000 0.000229 0.076253 -0.011814 -0.004373 -0.000015 1000.000000
36 1000.000122 0.000227 0.076253 -0.011814 -0.004373 -0.000015 1000.000122
37 1000.000122 0.000225 0.076253 -0.011814 -0.004373 -0.000015 1000.000122
[Rear_Toe1_02]
35 379.707825 0.194073 0.000477 -0.002651 -32.415733 -0.002651 379.707855
36 379.707825 0.194073 0.000477 -0.002651 -32.415535 -0.002651 379.707855
37 379.707825 0.194073 0.000477 -0.002651 -32.415333 -0.002651 379.707855
[Rear_Toe1_03]
35 500.129700 0.165701 0.000119 -179.979477 86.492393 -179.982971 500.129761
36 500.129700 0.165701 0.000119 -179.979630 86.464539 -179.983124 500.129761
37 500.129700 0.165701 0.000119 -179.979767 86.436905 -179.983261 500.129761
[Rear_Toe2_02]
35 340.494507 0.000238 -0.000954 0.001198 -66.693756 0.001198 340.494507
36 340.494507 0.000238 -0.000954 0.001198 -66.670059 0.001198 340.494507
37 340.494507 0.000238 -0.000954 0.001198 -66.646378 0.001198 340.494507
[Rear_Toe2_03]
35 433.103577 0.000000 0.000238 0.005440 65.081291 0.005440 433.103546
36 433.103577 0.000000 0.000238 0.005431 65.041641 0.005431 433.103546
37 433.103577 0.000000 0.000238 0.005425 65.011856 0.005425 433.103546
[Rear_Toe3_02]
35 340.494141 -0.000358 -0.000477 -0.002393 -62.149403 -0.002393 340.494171
36 340.494141 -0.000358 -0.000477 -0.002394 -62.122032 -0.002394 340.494171
37 340.494141 -0.000358 -0.000477 -0.002394 -62.094685 -0.002394 340.494171
[Rear_Toe3_03]
35 433.103577 0.001431 -0.000238 -0.000325 58.845932 -0.003955 433.103546
36 433.103577 0.001431 -0.000238 -0.000323 58.814980 -0.003953 433.103546
37 433.103577 0.001431 -0.000238 -0.000321 58.784012 -0.003951 433.103546
[Back_Bone]
35 1312.175781 -701.934692 0.000954 1.470162 -0.129307 -80.308754 1488.125488
36 1312.175781 -701.934692 0.000954 1.470126 -0.129718 -80.168053 1488.125488
37 1312.175781 -701.934692 0.000954 1.470089 -0.130128 -80.027359 1488.125488
[Head]
35 1406.159424 809.709290 0.001431 -2.168062 2.424171 -0.603304 1622.625488
36 1406.159424 809.709290 0.001431 -2.168062 2.424172 -0.603304 1622.625488
37 1406.159424 809.709290 0.001431 -2.168062 2.424171 -0.603304 1622.625488
[Motor_Bone]
35 1158.364380 -417.834747 0.000477 0.194251 -0.326791 -122.148972 1231.419434
36 1158.364380 -417.834747 0.000477 0.231889 -0.329117 -121.787399 1231.419434
37 1158.364380 -417.834747 0.000477 0.226821 -0.317846 -121.776062 1231.419434
[Ping_Mechanism]
35 1267.320435 -30.236801 -10.308078 0.000103 -0.000053 82.120995 1267.722900
36 1278.663208 51.679798 -10.308272 0.000103 -0.000053 82.120995 1279.748657
37 1290.005981 133.596405 -10.308467 0.000103 -0.000053 82.120995 1296.946289
[BN_LookIK]
35 193.241119 1380.371704 -0.002861 0.000000 89.965736 -31.038179 1393.832153
36 193.241119 1380.371704 -0.002861 0.000000 89.965736 -31.038179 1393.832153
37 193.241119 1380.371704 -0.002861 0.000000 89.965736 -31.038179 1393.832153
[bottomMouth]
35 -435.092926 615.759399 -0.000954 -0.000022 0.000016 73.527184 753.966492
36 -435.092926 615.759399 -0.000954 -0.000022 0.000016 73.527184 753.966492
37 -435.092926 615.759399 -0.000954 -0.000022 0.000016 73.527184 753.966492
[L_Mouth01]
35 554.440979 7.658243 838.222046 150.204178 23.759130 109.605339 1005.027161
36 554.440979 7.658243 838.222046 150.204178 23.759130 109.605339 1005.027161
37 554.440979 7.658243 838.222046 150.204178 23.759130 109.605339 1005.027161
[L_mouthFront]
35 551.629089 934.514771 339.150421 0.000081 2.804060 79.119301 1136.941284
36 551.629089 934.514771 339.150421 0.000081 2.804060 79.119301 1136.941284
37 551.629089 934.514771 339.150421 0.000081 2.804060 79.119301 1136.941284
[mouthGun]
35 55.332661 1627.420898 0.000000 0.000023 0.000009 -11.038128 1628.361328
36 55.332661 1627.420898 0.000000 0.000023 0.000009 -11.038128 1628.361328
37 55.332661 1627.420898 0.000000 0.000023 0.000009 -11.038128 1628.361328
[R_Mouth01]
35 554.442383 7.659197 -838.223938 29.795891 -23.759109 109.605331 1005.029541
36 554.442383 7.659197 -838.223938 29.795891 -23.759109 109.605331 1005.029541
37 554.442383 7.659197 -838.223938 29.795891 -23.759109 109.605331 1005.029541
[R_mouthFront]
35 551.629089 934.514282 -339.151367 0.000029 -2.803930 79.119133 1136.941162
36 551.629089 934.514282 -339.151367 0.000029 -2.803930 79.119133 1136.941162
37 551.629089 934.514282 -339.151367 0.000029 -2.803930 79.119133 1136.941162
[TopMouth]
35 461.269867 -56.106091 -0.008583 -0.000059 -0.000268 92.025169 464.669525
36 461.269867 -56.106091 -0.008583 -0.000059 -0.000268 92.025169 464.669525
37 461.269867 -56.106091 -0.008583 -0.000059 -0.000268 92.025169 464.669525
[weapon_bone]
35 -987.239868 1448.372803 0.001431 0.000000 89.965736 -31.038221 1752.833740
36 -987.239868 1448.372803 0.001431 0.000000 89.965736 -31.038221 1752.833740
37 -987.239868 1448.372803 0.001431 0.000000 89.965736 -31.038221 1752.833740
